<svg width="435" height="60" viewBox="0 0 435 60" fill="none" xmlns="http://www.w3.org/2000/svg">
<rect x="1" y="1.20654" width="433" height="56.9466" rx="5" fill="white"/>
<rect x="1" y="1.20654" width="433" height="56.9466" rx="5" stroke="#141414" stroke-width="2"/>
<rect x="1" y="1.20654" width="433" height="56.9466" rx="5" stroke="#141414" stroke-width="2"/>
<rect x="1" y="1.20654" width="433" height="56.9466" rx="5" stroke="#141414" stroke-width="2"/>
<circle cx="34.4733" cy="29.6798" r="16.9733" fill="white" stroke="#CDCDCD"/>
<circle cx="34.473" cy="29.6798" r="10.8168" fill="#C40000"/>
<path d="M87.6183 19.3358C87.6023 19.4638 87.5783 19.6718 87.5463 19.9598C87.5303 20.2318 87.5143 20.5118 87.4983 20.7998C87.4823 21.0718 87.4663 21.2718 87.4503 21.3998C87.4343 21.7198 87.4263 22.1518 87.4263 22.6958C87.4263 23.2238 87.4263 23.8158 87.4263 24.4718C87.4263 25.1278 87.4263 25.7918 87.4263 26.4638C87.4423 27.1198 87.4503 27.7438 87.4503 28.3358C87.4663 28.9118 87.4743 29.3918 87.4743 29.7758L84.4743 28.7678C84.4743 28.4638 84.4743 28.0638 84.4743 27.5678C84.4743 27.0558 84.4743 26.5038 84.4743 25.9118C84.4743 25.3038 84.4663 24.7038 84.4503 24.1118C84.4503 23.5198 84.4423 22.9838 84.4263 22.5038C84.4103 22.0238 84.3943 21.6638 84.3783 21.4238C84.3463 20.9278 84.3063 20.4958 84.2583 20.1278C84.2103 19.7438 84.1703 19.4798 84.1383 19.3358H87.6183ZM74.0583 22.3118C74.7623 22.3118 75.5623 22.3038 76.4583 22.2878C77.3543 22.2718 78.2903 22.2558 79.2663 22.2398C80.2423 22.2238 81.2023 22.2078 82.1463 22.1918C83.0903 22.1758 83.9783 22.1678 84.8103 22.1678C85.6423 22.1518 86.3623 22.1438 86.9703 22.1438C87.5783 22.1438 88.2423 22.1438 88.9623 22.1438C89.6823 22.1278 90.3943 22.1198 91.0983 22.1198C91.8023 22.1198 92.4423 22.1198 93.0183 22.1198C93.6103 22.1198 94.0663 22.1198 94.3863 22.1198L94.3623 24.9518C93.6103 24.9198 92.6183 24.8958 91.3863 24.8798C90.1543 24.8478 88.6503 24.8318 86.8743 24.8318C85.7863 24.8318 84.6823 24.8478 83.5623 24.8798C82.4423 24.8958 81.3303 24.9198 80.2263 24.9518C79.1223 24.9838 78.0583 25.0238 77.0343 25.0718C76.0103 25.1038 75.0423 25.1518 74.1303 25.2158L74.0583 22.3118ZM87.0423 29.4158C87.0423 30.7278 86.8823 31.8158 86.5623 32.6798C86.2583 33.5438 85.7943 34.1998 85.1703 34.6478C84.5463 35.0798 83.7703 35.2958 82.8423 35.2958C82.3943 35.2958 81.9223 35.1998 81.4263 35.0078C80.9463 34.8158 80.4983 34.5358 80.0823 34.1678C79.6663 33.7998 79.3303 33.3438 79.0743 32.7998C78.8343 32.2558 78.7143 31.6158 78.7143 30.8798C78.7143 29.9678 78.9303 29.1838 79.3623 28.5278C79.7943 27.8558 80.3703 27.3358 81.0903 26.9678C81.8263 26.5838 82.6343 26.3918 83.5143 26.3918C84.5703 26.3918 85.4503 26.6318 86.1543 27.1118C86.8743 27.5758 87.4103 28.2078 87.7623 29.0078C88.1303 29.8078 88.3143 30.7118 88.3143 31.7198C88.3143 32.5038 88.1863 33.3198 87.9303 34.1678C87.6743 35.0158 87.2503 35.8478 86.6583 36.6638C86.0823 37.4638 85.2983 38.1918 84.3063 38.8478C83.3303 39.5038 82.1063 40.0398 80.6343 40.4558L78.0663 37.9118C79.0903 37.7038 80.0423 37.4318 80.9223 37.0958C81.8023 36.7598 82.5703 36.3358 83.2263 35.8238C83.8983 35.3118 84.4183 34.6798 84.7863 33.9278C85.1703 33.1758 85.3623 32.2718 85.3623 31.2158C85.3623 30.4478 85.1703 29.8718 84.7863 29.4878C84.4183 29.1038 83.9703 28.9118 83.4423 28.9118C83.1383 28.9118 82.8423 28.9838 82.5543 29.1278C82.2663 29.2718 82.0343 29.4878 81.8583 29.7758C81.6823 30.0638 81.5943 30.4158 81.5943 30.8318C81.5943 31.3758 81.7783 31.8158 82.1463 32.1518C82.5303 32.4718 82.9623 32.6318 83.4423 32.6318C83.8263 32.6318 84.1623 32.5118 84.4503 32.2718C84.7543 32.0318 84.9543 31.6318 85.0503 31.0718C85.1463 30.5118 85.0663 29.7598 84.8103 28.8158L87.0423 29.4158ZM95.9788 31.9598C96.3308 31.6718 96.6588 31.3838 96.9628 31.0958C97.2828 30.8078 97.6268 30.4718 97.9948 30.0878C98.2668 29.7838 98.5788 29.4238 98.9308 29.0078C99.2988 28.5758 99.6828 28.1118 100.083 27.6158C100.483 27.1198 100.883 26.6238 101.283 26.1278C101.683 25.6318 102.075 25.1678 102.459 24.7358C103.291 23.7758 104.107 23.2638 104.907 23.1998C105.707 23.1198 106.547 23.5118 107.427 24.3758C107.987 24.9038 108.555 25.5118 109.131 26.1998C109.707 26.8718 110.275 27.5438 110.835 28.2158C111.411 28.8718 111.931 29.4558 112.395 29.9678C112.779 30.3838 113.195 30.8318 113.643 31.3118C114.091 31.7758 114.563 32.2638 115.059 32.7758C115.555 33.2718 116.067 33.7838 116.595 34.3118C117.139 34.8238 117.699 35.3358 118.275 35.8478L115.755 38.6798C115.179 38.1358 114.579 37.5278 113.955 36.8558C113.347 36.1678 112.747 35.4798 112.155 34.7918C111.579 34.0878 111.035 33.4478 110.523 32.8718C110.027 32.2798 109.507 31.6558 108.963 30.9998C108.435 30.3438 107.915 29.7118 107.403 29.1038C106.907 28.4958 106.467 27.9838 106.083 27.5678C105.811 27.2478 105.563 27.0478 105.339 26.9678C105.131 26.8878 104.931 26.9118 104.739 27.0398C104.547 27.1518 104.331 27.3518 104.091 27.6398C103.867 27.9438 103.587 28.3038 103.251 28.7198C102.931 29.1358 102.595 29.5758 102.243 30.0398C101.907 30.5038 101.571 30.9598 101.235 31.4078C100.915 31.8398 100.627 32.2238 100.371 32.5598C100.099 32.9598 99.8268 33.3758 99.5548 33.8078C99.2988 34.2398 99.0668 34.6158 98.8588 34.9358L95.9788 31.9598ZM112.275 22.1438C112.499 22.4798 112.755 22.8798 113.043 23.3438C113.331 23.7918 113.611 24.2558 113.883 24.7358C114.155 25.1998 114.379 25.6158 114.555 25.9838L112.395 26.9198C112.155 26.4238 111.923 25.9598 111.699 25.5278C111.475 25.0798 111.243 24.6558 111.003 24.2558C110.763 23.8398 110.491 23.4238 110.187 23.0078L112.275 22.1438ZM115.491 20.8238C115.747 21.1438 116.019 21.5358 116.307 21.9998C116.595 22.4478 116.875 22.9038 117.147 23.3678C117.435 23.8158 117.667 24.2158 117.843 24.5678L115.755 25.5758C115.499 25.0638 115.251 24.5998 115.011 24.1838C114.771 23.7678 114.523 23.3598 114.267 22.9598C114.011 22.5598 113.731 22.1678 113.427 21.7838L115.491 20.8238ZM121.002 22.1678C121.482 22.1518 121.938 22.1358 122.37 22.1198C122.802 22.0878 123.138 22.0638 123.378 22.0478C123.874 21.9998 124.482 21.9438 125.202 21.8798C125.922 21.8158 126.73 21.7438 127.626 21.6638C128.538 21.5838 129.506 21.5038 130.53 21.4238C131.554 21.3278 132.618 21.2318 133.722 21.1358C134.554 21.0718 135.386 21.0158 136.218 20.9678C137.05 20.9038 137.834 20.8558 138.57 20.8238C139.322 20.7758 139.97 20.7438 140.514 20.7278L140.538 23.7998C140.106 23.7998 139.61 23.8078 139.05 23.8238C138.49 23.8398 137.93 23.8718 137.37 23.9198C136.826 23.9518 136.338 24.0158 135.906 24.1118C135.186 24.3038 134.514 24.6318 133.89 25.0958C133.282 25.5438 132.746 26.0798 132.282 26.7038C131.818 27.3278 131.458 27.9998 131.202 28.7198C130.962 29.4238 130.842 30.1358 130.842 30.8558C130.842 31.6398 130.978 32.3358 131.25 32.9438C131.522 33.5358 131.898 34.0478 132.378 34.4798C132.874 34.8958 133.45 35.2478 134.106 35.5358C134.762 35.8078 135.466 36.0158 136.218 36.1598C136.986 36.3038 137.778 36.3998 138.594 36.4478L137.466 39.7358C136.458 39.6718 135.474 39.5118 134.514 39.2558C133.57 38.9998 132.682 38.6478 131.85 38.1998C131.034 37.7518 130.314 37.2078 129.69 36.5678C129.066 35.9118 128.578 35.1678 128.226 34.3358C127.874 33.4878 127.698 32.5438 127.698 31.5038C127.698 30.3358 127.882 29.2718 128.25 28.3118C128.618 27.3518 129.074 26.5118 129.618 25.7918C130.162 25.0558 130.706 24.4878 131.25 24.0878C130.802 24.1358 130.258 24.1998 129.618 24.2798C128.994 24.3438 128.314 24.4238 127.578 24.5198C126.858 24.5998 126.122 24.6878 125.37 24.7838C124.618 24.8798 123.89 24.9918 123.186 25.1198C122.498 25.2318 121.874 25.3438 121.314 25.4558L121.002 22.1678Z" fill="#141414"/>
<g clip-path="url(#clip0_151_3609)">
<path fill-rule="evenodd" clip-rule="evenodd" d="M403.638 37.6474L392.795 26.8048L395.505 24.0946L404.993 33.5821L414.48 24.0946L417.19 26.8048L406.348 37.6474C405.988 38.0067 405.501 38.2085 404.993 38.2085C404.485 38.2085 403.997 38.0067 403.638 37.6474Z" fill="#C40000"/>
</g>
<defs>
<clipPath id="clip0_151_3609">
<rect width="23" height="46" fill="white" transform="translate(428 18.1798) rotate(90)"/>
</clipPath>
</defs>
</svg>
