<svg width="30" height="32" viewBox="0 0 30 32" fill="none" xmlns="http://www.w3.org/2000/svg">
<g clip-path="url(#clip0_521_3956)">
<path d="M29.6875 23.915C29.7704 23.915 29.8499 23.8806 29.9085 23.8194C29.9671 23.7583 30 23.6754 30 23.5889V8.58887C30 8.50238 29.9671 8.41944 29.9085 8.35829C29.8499 8.29714 29.7704 8.26278 29.6875 8.26278H0.3125C0.22962 8.26278 0.150134 8.29714 0.0915291 8.35829C0.032924 8.41944 0 8.50238 0 8.58887L0 23.5889C0 23.6754 0.032924 23.7583 0.0915291 23.8194C0.150134 23.8806 0.22962 23.915 0.3125 23.915H29.6875ZM11.1 12.1758C11.099 12.0654 11.1261 11.9568 11.1784 11.8608C11.2306 11.7648 11.3063 11.685 11.3977 11.6294C11.489 11.5738 11.5929 11.5443 11.6986 11.5441C11.8044 11.5439 11.9084 11.5728 12 11.628L18.6 15.541C18.6906 15.5979 18.7656 15.6782 18.8176 15.7742C18.8697 15.8702 18.897 15.9786 18.897 16.0889C18.897 16.1992 18.8697 16.3076 18.8176 16.4036C18.7656 16.4996 18.6906 16.5799 18.6 16.6367L12 20.5497C11.9084 20.6049 11.8044 20.6339 11.6986 20.6336C11.5929 20.6334 11.489 20.604 11.3977 20.5483C11.3063 20.4927 11.2306 20.4129 11.1784 20.3169C11.1261 20.221 11.099 20.1123 11.1 20.0019V12.1758ZM26.875 1.08887H3.125C2.2962 1.08887 1.50134 1.43242 0.915291 2.04395C0.32924 2.65549 0 3.4849 0 4.34974L0 6.30626C0 6.47923 0.065848 6.64511 0.183058 6.76742C0.300269 6.88972 0.45924 6.95843 0.625 6.95843H29.375C29.5408 6.95843 29.6997 6.88972 29.8169 6.76742C29.9342 6.64511 30 6.47923 30 6.30626V4.34974C30 3.92151 29.9192 3.49748 29.7621 3.10186C29.6051 2.70623 29.3749 2.34675 29.0847 2.04395C28.7945 1.74115 28.45 1.50096 28.0709 1.33709C27.6917 1.17321 27.2854 1.08887 26.875 1.08887ZM4.6875 5.00191C4.50208 5.00191 4.32082 4.94454 4.16665 4.83704C4.01248 4.72955 3.89232 4.57677 3.82136 4.39801C3.75041 4.21926 3.73184 4.02256 3.76801 3.8328C3.80419 3.64304 3.89348 3.46873 4.02459 3.33191C4.1557 3.1951 4.32275 3.10193 4.5046 3.06419C4.68646 3.02644 4.87496 3.04581 5.04627 3.11985C5.21757 3.1939 5.36399 3.31928 5.467 3.48016C5.57002 3.64103 5.625 3.83017 5.625 4.02365C5.62176 4.28205 5.52195 4.52892 5.34683 4.71165C5.17171 4.89438 4.93513 4.99853 4.6875 5.00191ZM11.5625 5.00191C11.3771 5.00191 11.1958 4.94454 11.0417 4.83704C10.8875 4.72955 10.7673 4.57677 10.6964 4.39801C10.6254 4.21926 10.6068 4.02256 10.643 3.8328C10.6792 3.64304 10.7685 3.46873 10.8996 3.33191C11.0307 3.1951 11.1977 3.10193 11.3796 3.06419C11.5615 3.02644 11.75 3.04581 11.9213 3.11985C12.0926 3.1939 12.239 3.31928 12.342 3.48016C12.445 3.64103 12.5 3.83017 12.5 4.02365C12.4968 4.28205 12.397 4.52892 12.2218 4.71165C12.0467 4.89438 11.8101 4.99853 11.5625 5.00191ZM18.4375 5.00191C18.2521 5.00191 18.0708 4.94454 17.9167 4.83704C17.7625 4.72955 17.6423 4.57677 17.5714 4.39801C17.5004 4.21926 17.4818 4.02256 17.518 3.8328C17.5542 3.64304 17.6435 3.46873 17.7746 3.33191C17.9057 3.1951 18.0727 3.10193 18.2546 3.06419C18.4365 3.02644 18.625 3.04581 18.7963 3.11985C18.9676 3.1939 19.114 3.31928 19.217 3.48016C19.32 3.64103 19.375 3.83017 19.375 4.02365C19.3718 4.28205 19.272 4.52892 19.0968 4.71165C18.9217 4.89438 18.6851 4.99853 18.4375 5.00191ZM25.3125 5.00191C25.1271 5.00191 24.9458 4.94454 24.7917 4.83704C24.6375 4.72955 24.5173 4.57677 24.4464 4.39801C24.3754 4.21926 24.3568 4.02256 24.393 3.8328C24.4292 3.64304 24.5185 3.46873 24.6496 3.33191C24.7807 3.1951 24.9477 3.10193 25.1296 3.06419C25.3115 3.02644 25.5 3.04581 25.6713 3.11985C25.8426 3.1939 25.989 3.31928 26.092 3.48016C26.195 3.64103 26.25 3.83017 26.25 4.02365C26.2468 4.28205 26.147 4.52892 25.9718 4.71165C25.7967 4.89438 25.5601 4.99853 25.3125 5.00191ZM29.375 25.2193H0.625C0.45924 25.2193 0.300269 25.288 0.183058 25.4103C0.065848 25.5326 0 25.6985 0 25.8715L0 27.828C0 28.6928 0.32924 29.5222 0.915291 30.1338C1.50134 30.7453 2.2962 31.0889 3.125 31.0889H26.875C27.2854 31.0889 27.6917 31.0045 28.0709 30.8406C28.45 30.6768 28.7945 30.4366 29.0847 30.1338C29.3749 29.831 29.6051 29.4715 29.7621 29.0759C29.9192 28.6803 30 28.2562 30 27.828V25.8715C30 25.6985 29.9342 25.5326 29.8169 25.4103C29.6997 25.288 29.5408 25.2193 29.375 25.2193ZM4.6875 29.1323C4.50208 29.1323 4.32082 29.075 4.16665 28.9675C4.01248 28.86 3.89232 28.7072 3.82136 28.5285C3.75041 28.3497 3.73184 28.153 3.76801 27.9632C3.80419 27.7735 3.89348 27.5992 4.02459 27.4623C4.1557 27.3255 4.32275 27.2324 4.5046 27.1946C4.68646 27.1569 4.87496 27.1762 5.04627 27.2503C5.21757 27.3243 5.36399 27.4497 5.467 27.6106C5.57002 27.7715 5.625 27.9606 5.625 28.1541C5.62176 28.4125 5.52195 28.6594 5.34683 28.8421C5.17171 29.0248 4.93513 29.129 4.6875 29.1323ZM11.5625 29.1323C11.3771 29.1323 11.1958 29.075 11.0417 28.9675C10.8875 28.86 10.7673 28.7072 10.6964 28.5285C10.6254 28.3497 10.6068 28.153 10.643 27.9632C10.6792 27.7735 10.7685 27.5992 10.8996 27.4623C11.0307 27.3255 11.1977 27.2324 11.3796 27.1946C11.5615 27.1569 11.75 27.1762 11.9213 27.2503C12.0926 27.3243 12.239 27.4497 12.342 27.6106C12.445 27.7715 12.5 27.9606 12.5 28.1541C12.4968 28.4125 12.397 28.6594 12.2218 28.8421C12.0467 29.0248 11.8101 29.129 11.5625 29.1323ZM18.4375 29.1323C18.2521 29.1323 18.0708 29.075 17.9167 28.9675C17.7625 28.86 17.6423 28.7072 17.5714 28.5285C17.5004 28.3497 17.4818 28.153 17.518 27.9632C17.5542 27.7735 17.6435 27.5992 17.7746 27.4623C17.9057 27.3255 18.0727 27.2324 18.2546 27.1946C18.4365 27.1569 18.625 27.1762 18.7963 27.2503C18.9676 27.3243 19.114 27.4497 19.217 27.6106C19.32 27.7715 19.375 27.9606 19.375 28.1541C19.3718 28.4125 19.272 28.6594 19.0968 28.8421C18.9217 29.0248 18.6851 29.129 18.4375 29.1323ZM25.3125 29.1323C25.1271 29.1323 24.9458 29.075 24.7917 28.9675C24.6375 28.86 24.5173 28.7072 24.4464 28.5285C24.3754 28.3497 24.3568 28.153 24.393 27.9632C24.4292 27.7735 24.5185 27.5992 24.6496 27.4623C24.7807 27.3255 24.9477 27.2324 25.1296 27.1946C25.3115 27.1569 25.5 27.1762 25.6713 27.2503C25.8426 27.3243 25.989 27.4497 26.092 27.6106C26.195 27.7715 26.25 27.9606 26.25 28.1541C26.2468 28.4125 26.147 28.6594 25.9718 28.8421C25.7967 29.0248 25.5601 29.129 25.3125 29.1323Z" fill="#C40000"/>
</g>
<defs>
<clipPath id="clip0_521_3956">
<rect width="30" height="31" fill="white" transform="translate(0 0.588867)"/>
</clipPath>
</defs>
</svg>
