<svg width="38" height="38" viewBox="0 0 38 38" fill="none" xmlns="http://www.w3.org/2000/svg">
<path d="M33.1253 32.875L26.4299 26.1795M26.4299 26.1795C27.5751 25.0342 28.4836 23.6746 29.1035 22.1782C29.7233 20.6818 30.0423 19.078 30.0423 17.4583C30.0423 15.8386 29.7233 14.2348 29.1035 12.7384C28.4836 11.242 27.5751 9.88236 26.4299 8.73708C25.2846 7.59179 23.9249 6.6833 22.4285 6.06348C20.9321 5.44365 19.3283 5.12463 17.7087 5.12463C16.089 5.12463 14.4852 5.44365 12.9888 6.06348C11.4924 6.6833 10.1327 7.59179 8.98744 8.73708C6.67443 11.0501 5.375 14.1872 5.375 17.4583C5.375 20.7294 6.67443 23.8665 8.98744 26.1795C11.3005 28.4925 14.4376 29.7919 17.7087 29.7919C20.9797 29.7919 24.1169 28.4925 26.4299 26.1795Z" stroke="white" stroke-width="5.5" stroke-linecap="round" stroke-linejoin="round"/>
</svg>
